<?xml version="1.0" encoding="UTF-8" standalone="no"?><!DOCTYPE svg PUBLIC "-//W3C//DTD SVG 1.1//EN" "http://www.w3.org/Graphics/SVG/1.1/DTD/svg11.dtd"><svg width="100%" height="100%" viewBox="0 0 16 16" version="1.1" xmlns="http://www.w3.org/2000/svg" xmlns:xlink="http://www.w3.org/1999/xlink" xml:space="preserve" xmlns:serif="http://www.serif.com/" style="fill-rule:evenodd;clip-rule:evenodd;stroke-linejoin:round;stroke-miterlimit:1.41421;"><path d="M15.774,4.475l-2.646,-2.713c-0.046,-0.047 -0.109,-0.074 -0.175,-0.074c-0.065,0 -0.128,0.027 -0.174,0.074l-6.51,6.674c-0.046,0.047 -0.109,0.074 -0.175,0.074c-0.065,0 -0.128,-0.027 -0.174,-0.074l-2.793,-2.863c-0.046,-0.047 -0.109,-0.074 -0.175,-0.074c-0.065,0 -0.128,0.027 -0.174,0.074l-2.549,2.612c-0.096,0.099 -0.096,0.258 0,0.357l5.81,5.911c0.046,0.047 0.109,0.074 0.175,0.074c0.066,0 0.129,-0.027 0.175,-0.074l9.385,-9.621c0.095,-0.099 0.095,-0.258 0,-0.357Z" style="fill:#fff;fill-rule:nonzero;"/></svg>