<?xml version="1.0" encoding="UTF-8" standalone="no"?><!DOCTYPE svg PUBLIC "-//W3C//DTD SVG 1.1//EN" "http://www.w3.org/Graphics/SVG/1.1/DTD/svg11.dtd"><svg width="100%" height="100%" viewBox="0 0 100 75" version="1.1" xmlns="http://www.w3.org/2000/svg" xmlns:xlink="http://www.w3.org/1999/xlink" xml:space="preserve" xmlns:serif="http://www.serif.com/" style="fill-rule:evenodd;clip-rule:evenodd;stroke-linejoin:round;stroke-miterlimit:1.41421;"><path d="M96.37,51.112c0.124,-7.893 -5.408,-14.683 -12.937,-16.341c-0.15,-17.293 -14.266,-31.316 -31.595,-31.316l-0.235,0c-14.227,0 -26.751,9.624 -30.425,23.12c-9.972,1.612 -17.55,10.332 -17.55,20.582l0,0.594c0,11.467 9.329,20.796 20.796,20.796l55.306,0c9.176,0 16.641,-7.465 16.641,-16.641l-0.001,-0.794Zm-4.8,0.794c0,6.528 -5.312,11.84 -11.84,11.84l-55.306,0c-8.82,0 -15.996,-7.175 -15.996,-15.995l0,-0.594c0,-8.348 6.532,-15.377 14.87,-16.003l1.794,-0.134l0.374,-1.76c2.627,-12.367 13.375,-21.004 26.138,-21.004l0.235,0c14.775,0 26.796,12.02 26.796,26.795l0,3.994l2.205,0.18c6.113,0.5 10.827,5.688 10.73,11.851l0,0.83Zm-59.907,-12.224c-0.949,0.948 -1.424,2.133 -1.424,3.44c0,1.304 0.474,2.492 1.424,3.44c0.949,0.949 2.136,1.424 3.442,1.424c1.305,0 2.492,-0.475 3.441,-1.424c0.831,-0.949 1.424,-2.137 1.424,-3.44c0,-1.306 -0.475,-2.492 -1.424,-3.44c-1.779,-1.782 -5.103,-1.782 -6.883,0Zm14.954,0c-0.949,0.948 -1.424,2.133 -1.424,3.44c0,1.304 0.475,2.492 1.424,3.44c0.831,0.949 2.137,1.424 3.442,1.424c1.304,0 2.493,-0.475 3.442,-1.424c0.949,-0.949 1.424,-2.137 1.424,-3.44c0,-1.306 -0.475,-2.492 -1.424,-3.44c-1.78,-1.782 -5.104,-1.782 -6.884,0Zm15.072,0c-0.948,0.948 -1.424,2.133 -1.424,3.44c0,1.304 0.476,2.492 1.424,3.44c0.832,0.949 2.137,1.424 3.442,1.424c1.304,0 2.492,-0.475 3.441,-1.424c0.831,-0.949 1.424,-2.137 1.425,-3.44c0,-1.306 -0.475,-2.492 -1.424,-3.44c-1.779,-1.782 -4.984,-1.782 -6.884,0Z" style="fill:#fff;fill-rule:nonzero;"/></svg>