<?xml version="1.0" encoding="UTF-8" standalone="no"?><!DOCTYPE svg PUBLIC "-//W3C//DTD SVG 1.1//EN" "http://www.w3.org/Graphics/SVG/1.1/DTD/svg11.dtd"><svg width="100%" height="100%" viewBox="0 0 306 181" version="1.1" xmlns="http://www.w3.org/2000/svg" xmlns:xlink="http://www.w3.org/1999/xlink" xml:space="preserve" style="fill-rule:evenodd;clip-rule:evenodd;stroke-linejoin:round;stroke-miterlimit:1.41421;"><path id="path4256" d="M99.031,179.592c-18.479,-4.617 -28.774,-19.306 -28.807,-41.101c-0.01,-6.968 0.494,-10.307 2.234,-14.789c4.263,-10.986 15.551,-19.274 30.405,-22.325c7.391,-1.518 9.668,-3.148 9.668,-6.921c0,-1.184 0.88,-4.709 1.955,-7.834c4.885,-14.197 13.928,-26.031 23.591,-30.873c10.114,-5.067 15.22,-6.209 27.454,-6.144c17.376,0.094 26.044,3.863 38.168,16.595l6.668,7.003l5.974,-2.067c28.911,-10.005 57.732,7.026 60.055,35.489l0.635,7.786l5.694,2.04c16.259,5.825 23.901,18.058 22.515,36.04c-0.906,11.759 -6.404,21.148 -15.114,25.809l-4.095,2.191l-91,0.175c-69.928,0.135 -92.157,-0.114 -96,-1.074l0,0Z" style="fill:#094ab1;fill-rule:nonzero;"/><path id="path4248" d="M30.813,167.021c-10.788,-2.564 -22.219,-12.092 -27.579,-22.989c-3.041,-6.181 -3.203,-7.09 -3.203,-18.025c0,-10.401 0.26,-12.07 2.68,-17.234c5.103,-10.887 14.88,-18.754 27.147,-21.843c2.589,-0.652 5.022,-1.692 5.406,-2.312c0.385,-0.62 0.812,-3.997 0.949,-7.504c0.854,-21.782 15.146,-40.974 35.102,-47.138c10.781,-3.33 24.326,-2.511 36.052,2.18c3.719,1.488 3.301,1.807 11.164,-8.504c4.651,-6.098 14.048,-13.682 21.74,-17.546c8.302,-4.169 16.936,-6.09 27.26,-6.065c28.858,0.071 53.728,18.121 62.924,45.668c2.939,8.802 2.792,11.267 -0.674,11.339c-1.512,0.032 -5.846,0.865 -9.63,1.851l-6.881,1.794l-6.278,-6.279c-17.702,-17.701 -46.591,-21.527 -71.15,-9.423c-9.812,4.836 -17.696,11.779 -23.652,20.827c-4.245,6.45 -9.659,18.483 -9.659,21.471c0,2.119 -1.716,3.178 -9.045,5.582c-22.692,7.442 -35.937,24.628 -35.928,46.62c0.003,8.004 2.065,17.798 4.926,23.407c1.079,2.115 1.681,4.126 1.338,4.469c-0.878,0.877 -29.106,0.582 -33.009,-0.346l0,0Z" style="fill:#094ab1;fill-rule:nonzero;"/></svg>