<?xml version="1.0" encoding="UTF-8" standalone="no"?><!DOCTYPE svg PUBLIC "-//W3C//DTD SVG 1.1//EN" "http://www.w3.org/Graphics/SVG/1.1/DTD/svg11.dtd"><svg width="100%" height="100%" viewBox="0 0 1000 1000" version="1.1" xmlns="http://www.w3.org/2000/svg" xmlns:xlink="http://www.w3.org/1999/xlink" xml:space="preserve" xmlns:serif="http://www.serif.com/" style="fill-rule:evenodd;clip-rule:evenodd;stroke-linejoin:round;stroke-miterlimit:1.41421;"><path d="M778.8,222.6l-88.6,88.6c-48.1,-48.1 -114.6,-77.8 -187.9,-77.8c-146.8,0 -265.8,119.1 -265.8,265.9c0,0.1 0,-0.1 0,-0.1l103.3,0.1l-165.1,178.9l-164.7,-179l101.1,0c0,-216 175.1,-391.2 391.1,-391.2c108.1,0 205.8,43.8 276.6,114.6Zm211.2,278.2l-165.7,-177.7l-164,177.7l103.3,0c0,0.1 0,-0.1 0,-0.1c0,146.9 -119,265.9 -265.8,265.9c-73.4,0 -139.9,-29.8 -187.9,-77.8l-88.6,88.6c70.6,70.8 168.4,114.6 276.4,114.6c216,0 391.1,-175.2 391.1,-391.2l101.2,0Z" style="fill:#fff;fill-rule:nonzero;"/></svg>