<?xml version="1.0" encoding="UTF-8" standalone="no"?><!DOCTYPE svg PUBLIC "-//W3C//DTD SVG 1.1//EN" "http://www.w3.org/Graphics/SVG/1.1/DTD/svg11.dtd"><svg width="100%" height="100%" viewBox="0 0 80 81" version="1.1" xmlns="http://www.w3.org/2000/svg" xmlns:xlink="http://www.w3.org/1999/xlink" xml:space="preserve" xmlns:serif="http://www.serif.com/" style="fill-rule:evenodd;clip-rule:evenodd;stroke-linejoin:round;stroke-miterlimit:1.41421;"><path d="M56.835,23.371c-9.254,-9.254 -24.26,-9.254 -33.514,0c-9.254,9.254 -9.254,24.26 0,33.515c9.254,9.254 24.26,9.254 33.514,0c9.255,-9.255 9.255,-24.261 0,-33.515Zm-16.835,-2.357c10.58,0 19.17,8.589 19.17,19.17c0,10.58 -8.59,19.169 -19.17,19.169c-10.58,0 -19.17,-8.589 -19.17,-19.169c0,-10.581 8.59,-19.17 19.17,-19.17Z" style="fill:#fff;"/><path id="Layer_7" d="M51.947,39.715c0.447,0.258 0.447,0.68 0,0.937l-17.515,10.112c-0.446,0.258 -0.812,0.047 -0.812,-0.468l0,-20.225c0,-0.515 0.366,-0.726 0.812,-0.468l17.515,10.112Z" style="fill:#fff;fill-rule:nonzero;"/></svg>