<?xml version="1.0" encoding="UTF-8" standalone="no"?><!DOCTYPE svg PUBLIC "-//W3C//DTD SVG 1.1//EN" "http://www.w3.org/Graphics/SVG/1.1/DTD/svg11.dtd"><svg width="100%" height="100%" viewBox="0 0 80 81" version="1.1" xmlns="http://www.w3.org/2000/svg" xmlns:xlink="http://www.w3.org/1999/xlink" xml:space="preserve" xmlns:serif="http://www.serif.com/" style="fill-rule:evenodd;clip-rule:evenodd;stroke-linejoin:round;stroke-miterlimit:1.41421;"><g><g><path d="M35.096,68.304l9.8,0l0,-19.6l7.352,0l-12.248,-14.704l-12.248,14.704l7.344,0l0,19.6Z" style="fill:#fff;fill-rule:nonzero;"/><path d="M68.384,32.072c-2.272,-6.032 -8.088,-10.32 -14.912,-10.32c-1.568,0 -3.088,0.224 -4.52,0.648c-3.888,-6.272 -10.832,-10.448 -18.752,-10.448c-12.016,0 -21.792,9.616 -22.048,21.568c-4.392,2.544 -7.352,7.304 -7.352,12.736c0,8.112 6.584,14.696 14.704,14.696l11.024,0l-4.088,-4.904l-6.952,0c-5.4,0 -9.792,-4.384 -9.792,-9.8c0,-4.64 3.224,-8.528 7.56,-9.544c-0.144,-0.88 -0.216,-1.784 -0.216,-2.704c0,-9.472 7.68,-17.152 17.152,-17.152c7.744,0 14.296,5.136 16.416,12.192c1.888,-1.496 4.264,-2.392 6.856,-2.392c5.672,0 10.352,4.288 10.96,9.8l0.072,0c5.4,0 9.792,4.384 9.792,9.8c0,5.4 -4.384,9.8 -9.792,9.8l-6.952,0l-4.088,4.904l11.024,0c8.112,0 14.704,-6.6 14.704,-14.704c0.016,-6.768 -4.568,-12.472 -10.8,-14.176Z" style="fill:#fff;fill-rule:nonzero;"/></g></g></svg>